<?xml version="1.0" encoding="utf-8"?>
<!-- Generator: Adobe Illustrator 21.1.0, SVG Export Plug-In . SVG Version: 6.00 Build 0)  -->
<svg version="1.1" id="Layer_1" xmlns="http://www.w3.org/2000/svg" xmlns:xlink="http://www.w3.org/1999/xlink" x="0px" y="0px"
	 viewBox="0 0 64 64" style="enable-background:new 0 0 64 64;" xml:space="preserve">
<style type="text/css">
	.st0{fill:#263238;}
	.st1{fill:#FFD740;}
	.st2{fill:#40C4FF;}
	.st3{fill:#FF5252;}
	.st4{fill:#4DB6AC;}
	.st5{fill:#FFFFFF;}
	.st6{fill:#37474F;}
	.st7{fill:#4FC3F7;}
</style>
<g>
	<g>
		<path class="st1" d="M39.991,20.001h-16c-0.552,0-1-0.448-1-1v-3c0-0.552,0.448-1,1-1h16c0.552,0,1,0.448,1,1v3
			C40.991,19.553,40.543,20.001,39.991,20.001z"/>
		<path class="st0" d="M39.99,20.501h-16c-0.827,0-1.5-0.673-1.5-1.5v-3c0-0.827,0.673-1.5,1.5-1.5h16c0.827,0,1.5,0.673,1.5,1.5v3
			C41.49,19.828,40.817,20.501,39.99,20.501z M23.99,15.501c-0.275,0-0.5,0.225-0.5,0.5v3c0,0.275,0.225,0.5,0.5,0.5h16
			c0.275,0,0.5-0.225,0.5-0.5v-3c0-0.275-0.225-0.5-0.5-0.5H23.99z"/>
	</g>
	<g>
		<path class="st0" d="M40.978,58.001H23.504c-4.916,0-9.217-2.598-11.506-6.948c-2.288-4.351-1.992-9.366,0.793-13.417
			l10.943-15.918c0.157-0.227,0.468-0.284,0.695-0.129c0.228,0.156,0.285,0.468,0.129,0.695L13.615,38.202
			c-2.571,3.739-2.845,8.369-0.732,12.386c2.113,4.016,6.083,6.413,10.621,6.413h17.474c4.538,0,8.508-2.397,10.621-6.413
			c2.112-4.017,1.839-8.646-0.732-12.386L39.922,22.284c-0.156-0.228-0.099-0.539,0.129-0.695c0.229-0.155,0.539-0.098,0.695,0.129
			L51.69,37.636c2.785,4.051,3.081,9.066,0.793,13.417C50.194,55.403,45.894,58.001,40.978,58.001z"/>
	</g>
	<g>
		<path class="st0" d="M38.49,13.501c-0.086,0-0.172-0.021-0.251-0.067c-0.238-0.139-0.32-0.444-0.182-0.684l4.99-8.619
			l-6.491,0.866c-0.091,0.014-0.185-0.001-0.27-0.039l-4.297-1.91l-4.297,1.91c-0.085,0.038-0.178,0.053-0.27,0.039l-6.491-0.866
			l4.99,8.619c0.139,0.239,0.057,0.545-0.182,0.684c-0.237,0.138-0.545,0.057-0.684-0.182l-5.5-9.5
			c-0.096-0.165-0.089-0.37,0.017-0.529c0.105-0.158,0.286-0.245,0.482-0.218l7.359,0.981l4.371-1.942
			c0.129-0.057,0.277-0.057,0.406,0l4.371,1.942l7.359-0.981c0.192-0.027,0.376,0.06,0.482,0.218
			c0.105,0.159,0.112,0.364,0.017,0.529l-5.5,9.5C38.83,13.411,38.662,13.501,38.49,13.501z"/>
	</g>
	<g>
		<path class="st0" d="M29.49,13.501c-0.228,0-0.433-0.155-0.486-0.386l-2-8.5c-0.063-0.269,0.103-0.538,0.372-0.601
			c0.272-0.067,0.538,0.104,0.601,0.372l2,8.5c0.063,0.269-0.103,0.538-0.372,0.601C29.566,13.497,29.527,13.501,29.49,13.501z"/>
	</g>
	<g>
		<path class="st0" d="M34.49,13.501c-0.037,0-0.076-0.004-0.114-0.014c-0.27-0.062-0.436-0.332-0.372-0.601l2-8.5
			c0.062-0.268,0.33-0.439,0.601-0.372c0.27,0.062,0.436,0.332,0.372,0.601l-2,8.5C34.923,13.346,34.718,13.501,34.49,13.501z"/>
	</g>
	<g>
		<polyline class="st1" points="42.991,17.501 53.999,17.501 51.499,20.001 53.999,22.501 42.991,22.501 		"/>
		<path class="st0" d="M53.999,23.001H42.99c-0.276,0-0.5-0.224-0.5-0.5s0.224-0.5,0.5-0.5h9.802l-1.646-1.646
			c-0.195-0.195-0.195-0.512,0-0.707l1.646-1.646H42.99c-0.276,0-0.5-0.224-0.5-0.5s0.224-0.5,0.5-0.5h11.009
			c0.202,0,0.385,0.122,0.462,0.309s0.034,0.402-0.108,0.545l-2.146,2.146l2.146,2.146c0.143,0.143,0.186,0.358,0.108,0.545
			S54.201,23.001,53.999,23.001z"/>
	</g>
	<g>
		<circle class="st4" cx="32.241" cy="39.751" r="9"/>
		<path class="st0" d="M32.24,49.251c-5.238,0-9.5-4.262-9.5-9.5s4.262-9.5,9.5-9.5s9.5,4.262,9.5,9.5S37.479,49.251,32.24,49.251z
			 M32.24,31.251c-4.687,0-8.5,3.813-8.5,8.5s3.813,8.5,8.5,8.5s8.5-3.813,8.5-8.5S36.927,31.251,32.24,31.251z"/>
	</g>
	<g>
		<path class="st0" d="M32.953,43.751h-3.25c-0.276,0-0.5-0.224-0.5-0.5s0.224-0.5,0.5-0.5h3.25c0.689,0,1.25-0.561,1.25-1.25
			s-0.561-1.25-1.25-1.25h-1.5c-1.24,0-2.25-1.01-2.25-2.25s1.01-2.25,2.25-2.25h2.75c0.276,0,0.5,0.224,0.5,0.5s-0.224,0.5-0.5,0.5
			h-2.75c-0.689,0-1.25,0.561-1.25,1.25s0.561,1.25,1.25,1.25h1.5c1.24,0,2.25,1.01,2.25,2.25S34.193,43.751,32.953,43.751z"/>
	</g>
	<g>
		<path class="st0" d="M32.203,36.751c-0.276,0-0.5-0.224-0.5-0.5v-1.5c0-0.276,0.224-0.5,0.5-0.5s0.5,0.224,0.5,0.5v1.5
			C32.703,36.527,32.479,36.751,32.203,36.751z"/>
	</g>
	<g>
		<path class="st0" d="M32.203,45.251c-0.276,0-0.5-0.224-0.5-0.5v-1.5c0-0.276,0.224-0.5,0.5-0.5s0.5,0.224,0.5,0.5v1.5
			C32.703,45.027,32.479,45.251,32.203,45.251z"/>
	</g>
	<g>
		<path class="st0" d="M12,29.501c-0.276,0-0.5-0.224-0.5-0.5v-4c0-0.276,0.224-0.5,0.5-0.5s0.5,0.224,0.5,0.5v4
			C12.5,29.277,12.276,29.501,12,29.501z"/>
	</g>
	<g>
		<path class="st0" d="M14,27.501h-4c-0.276,0-0.5-0.224-0.5-0.5s0.224-0.5,0.5-0.5h4c0.276,0,0.5,0.224,0.5,0.5
			S14.276,27.501,14,27.501z"/>
	</g>
	<g>
		<path class="st0" d="M17,22.501c-0.276,0-0.5-0.224-0.5-0.5v-4c0-0.276,0.224-0.5,0.5-0.5s0.5,0.224,0.5,0.5v4
			C17.5,22.277,17.276,22.501,17,22.501z"/>
	</g>
	<g>
		<path class="st0" d="M19,20.501h-4c-0.276,0-0.5-0.224-0.5-0.5s0.224-0.5,0.5-0.5h4c0.276,0,0.5,0.224,0.5,0.5
			S19.276,20.501,19,20.501z"/>
	</g>
	<g>
		<path class="st0" d="M22.241,62.001h-2c-0.276,0-0.5-0.224-0.5-0.5s0.224-0.5,0.5-0.5h2c0.276,0,0.5,0.224,0.5,0.5
			S22.518,62.001,22.241,62.001z"/>
	</g>
	<g>
		<path class="st0" d="M44.241,62.001h-20c-0.276,0-0.5-0.224-0.5-0.5s0.224-0.5,0.5-0.5h20c0.276,0,0.5,0.224,0.5,0.5
			S44.518,62.001,44.241,62.001z"/>
	</g>
</g>
</svg>
