<?xml version="1.0" encoding="utf-8"?>
<!-- Generator: Adobe Illustrator 21.1.0, SVG Export Plug-In . SVG Version: 6.00 Build 0)  -->
<svg version="1.1" id="Layer_1" xmlns="http://www.w3.org/2000/svg" xmlns:xlink="http://www.w3.org/1999/xlink" x="0px" y="0px"
	 viewBox="0 0 64 64" style="enable-background:new 0 0 64 64;" xml:space="preserve">
<style type="text/css">
	.st0{fill:#263238;}
	.st1{fill:#FFD740;}
	.st2{fill:#40C4FF;}
	.st3{fill:#FF5252;}
	.st4{fill:#4DB6AC;}
	.st5{fill:#FFFFFF;}
	.st6{fill:#37474F;}
	.st7{fill:#4FC3F7;}
</style>
<g>
	<g>
		<path class="st1" d="M15.01,38.5c-2.205-0.002-3.997-1.795-3.997-4c0-0.509,0.196-0.968,0.509-1.321
			c-0.325-0.479-0.515-1.057-0.515-1.679v-9.41c0-0.032,0.006-0.063,0.007-0.095L2,31l13.01,11.266V38.5z"/>
	</g>
	<g>
		<path class="st0" d="M51,36c-0.276,0-0.5-0.224-0.5-0.5v-28C50.5,7.224,50.724,7,51,7s0.5,0.224,0.5,0.5v28
			C51.5,35.776,51.276,36,51,36z"/>
	</g>
	<g>
		<polygon class="st3" points="51,16.5 51,8.5 62,12.5 		"/>
		<path class="st0" d="M51,17c-0.102,0-0.201-0.031-0.287-0.09c-0.134-0.094-0.213-0.247-0.213-0.41v-8
			c0-0.163,0.079-0.316,0.213-0.41c0.135-0.093,0.306-0.117,0.458-0.06l11,4c0.197,0.072,0.329,0.259,0.329,0.47
			s-0.132,0.398-0.329,0.47l-11,4C51.115,16.99,51.058,17,51,17z M51.5,9.214v6.572l9.037-3.286L51.5,9.214z"/>
	</g>
	<g>
		<path class="st0" d="M57.5,62.5h-19c-0.276,0-0.5-0.224-0.5-0.5s0.224-0.5,0.5-0.5h19c0.276,0,0.5,0.224,0.5,0.5
			S57.776,62.5,57.5,62.5z"/>
	</g>
	<g>
		<path class="st0" d="M61.5,62.5h-2c-0.276,0-0.5-0.224-0.5-0.5s0.224-0.5,0.5-0.5h2c0.276,0,0.5,0.224,0.5,0.5
			S61.776,62.5,61.5,62.5z"/>
	</g>
	<g>
		<path class="st0" d="M2,62.5c-0.183,0-0.359-0.101-0.447-0.276c-0.123-0.247-0.023-0.547,0.224-0.671l17-8.5
			c0.131-0.064,0.283-0.07,0.416-0.014l5.69,2.371l7.764-7.764c0.128-0.128,0.316-0.175,0.487-0.128l8.657,2.405l8.798-12.707
			C50.683,37.081,50.836,37,51,37h10.5c0.276,0,0.5,0.224,0.5,0.5S61.776,38,61.5,38H51.262l-8.851,12.784
			c-0.121,0.175-0.343,0.254-0.545,0.197l-8.719-2.422l-7.794,7.794c-0.144,0.144-0.358,0.186-0.546,0.108l-5.789-2.412
			L2.224,62.447C2.151,62.483,2.075,62.5,2,62.5z"/>
	</g>
	<g>
		<path class="st0" d="M22.99,15c-3.584,0-6.5-2.916-6.5-6.5S19.406,2,22.99,2s6.5,2.916,6.5,6.5S26.574,15,22.99,15z M22.99,3
			c-3.032,0-5.5,2.467-5.5,5.5s2.468,5.5,5.5,5.5s5.5-2.467,5.5-5.5S26.022,3,22.99,3z"/>
	</g>
	<g>
		<path class="st1" d="M27.15,5.031l0.447-0.372C26.497,3.34,24.842,2.5,22.99,2.5c-3.314,0-6,2.686-6,6h0.566
			C21.061,8.5,24.456,7.273,27.15,5.031z"/>
		<path class="st0" d="M17.557,9H16.99c-0.276,0-0.5-0.224-0.5-0.5c0-3.584,2.916-6.5,6.5-6.5c1.932,0,3.751,0.852,4.991,2.338
			c0.085,0.102,0.126,0.233,0.114,0.366s-0.076,0.254-0.179,0.339L27.47,5.415C24.691,7.727,21.171,9,17.557,9z M17.513,8h0.044
			c3.381,0,6.675-1.191,9.274-3.354l0,0l0.045-0.038C25.848,3.581,24.457,3,22.99,3C20.126,3,17.766,5.201,17.513,8z"/>
	</g>
	<g>
		<path class="st0" d="M21.01,52h-4c-0.276,0-0.5-0.224-0.5-0.5v-19c0-0.276,0.224-0.5,0.5-0.5h15.5c1.654,0,3,1.346,3,3v11
			c0,0.276-0.224,0.5-0.5,0.5h-4c-0.231,0-0.434-0.159-0.486-0.385l-1.818-7.682c-0.054-0.227-0.254-0.385-0.486-0.385h-4.342
			c-0.247,0-0.46,0.184-0.495,0.429l-1.877,13.093C21.47,51.817,21.259,52,21.01,52z M17.51,51h3.066l1.815-12.664
			c0.104-0.734,0.743-1.287,1.485-1.287h4.342c0.699,0,1.299,0.475,1.459,1.155l1.728,7.296h3.104V35c0-1.103-0.897-2-2-2h-15V51z"
			/>
	</g>
	<g>
		<path class="st0" d="M19.99,15.996c-0.276,0-0.5-0.224-0.5-0.5l-0.001-1.799c0-0.276,0.224-0.5,0.5-0.5l0,0
			c0.276,0,0.5,0.224,0.5,0.5l0.001,1.799C20.49,15.771,20.267,15.996,19.99,15.996L19.99,15.996z"/>
	</g>
	<g>
		<path class="st0" d="M25.99,15.995c-0.275,0-0.498-0.222-0.5-0.497l-0.01-1.791c-0.002-0.276,0.221-0.501,0.497-0.503
			c0.001,0,0.002,0,0.003,0c0.275,0,0.498,0.222,0.5,0.497l0.01,1.791c0.002,0.276-0.221,0.501-0.497,0.503
			C25.992,15.995,25.991,15.995,25.99,15.995z"/>
	</g>
	<g>
		<path class="st0" d="M41.691,8.601c-0.075,0-0.151-0.017-0.223-0.052c-0.247-0.123-0.348-0.423-0.225-0.671
			c0.368-0.74,0.066-1.643-0.673-2.012C39.83,5.5,38.929,5.8,38.559,6.54c-0.123,0.247-0.423,0.348-0.671,0.224
			c-0.247-0.123-0.347-0.423-0.224-0.67c0.616-1.232,2.121-1.737,3.353-1.122c1.233,0.615,1.737,2.119,1.122,3.353
			C42.052,8.5,41.875,8.601,41.691,8.601z"/>
	</g>
	<g>
		<path class="st0" d="M29.008,33H14.007c-0.827,0-1.5-0.673-1.5-1.5v-9.415c0-2.093,1.162-3.977,3.033-4.916l4.226-2.121
			c0.204-0.105,0.455-0.054,0.604,0.122l2.62,3.057l2.62-3.057c0.149-0.175,0.399-0.224,0.604-0.122l2.912,1.453h2.1
			c0.763,0,1.448-0.423,1.789-1.105l3.757-7.513c0.124-0.247,0.425-0.345,0.671-0.224l3.578,1.789
			c0.118,0.06,0.209,0.164,0.251,0.289c0.042,0.126,0.032,0.263-0.027,0.382l-4.172,8.342c-0.938,1.875-2.822,3.04-4.919,3.04
			h-2.646v11C29.508,32.776,29.284,33,29.008,33z M19.865,16.118l-3.876,1.945c-1.531,0.768-2.482,2.31-2.482,4.022V31.5
			c0,0.276,0.225,0.5,0.5,0.5h14.501V21c0-0.276,0.224-0.5,0.5-0.5h3.146c1.716,0,3.258-0.953,4.024-2.487l3.948-7.895l-2.684-1.342
			l-3.533,7.065c-0.511,1.023-1.539,1.658-2.684,1.658h-2.218c-0.077,0-0.154-0.018-0.224-0.053l-2.668-1.331l-2.746,3.204
			c-0.191,0.222-0.568,0.222-0.76,0L19.865,16.118z"/>
	</g>
	<g>
		<polygon class="st2" points="24.5,26.468 23.009,28.468 21.5,26.468 22,17.468 24,17.468 		"/>
		<path class="st0" d="M23.009,28.968c-0.157,0-0.305-0.074-0.399-0.199l-1.509-2c-0.071-0.095-0.106-0.211-0.1-0.329l0.5-9
			c0.015-0.265,0.233-0.472,0.499-0.472h2c0.266,0,0.484,0.208,0.499,0.472l0.5,9c0.007,0.117-0.028,0.233-0.099,0.327l-1.491,2
			C23.315,28.893,23.168,28.967,23.009,28.968L23.009,28.968z M22.01,26.313l0.997,1.321l0.983-1.32l-0.463-8.347h-1.055
			L22.01,26.313z"/>
	</g>
	<g>
		<path class="st0" d="M17.009,33c-0.276,0-0.5-0.224-0.5-0.5v-10c0-0.276,0.224-0.5,0.5-0.5s0.5,0.224,0.5,0.5v10
			C17.509,32.776,17.285,33,17.009,33z"/>
	</g>
	<g>
		<path class="st0" d="M15.013,37c-1.379,0-2.5-1.122-2.5-2.5c0-0.276,0.224-0.5,0.5-0.5s0.5,0.224,0.5,0.5
			c0,0.827,0.673,1.5,1.5,1.5s1.5-0.673,1.5-1.5c0-0.276,0.224-0.5,0.5-0.5s0.5,0.224,0.5,0.5C17.513,35.878,16.392,37,15.013,37z"
			/>
	</g>
	<g>
		<path class="st0" d="M15.01,42.766c-0.116,0-0.232-0.04-0.327-0.122L1.673,31.377c-0.105-0.091-0.168-0.221-0.173-0.36
			c-0.005-0.139,0.049-0.273,0.146-0.371l9.014-9.004c0.145-0.146,0.364-0.186,0.552-0.105c0.188,0.082,0.308,0.27,0.302,0.474
			c-0.006,0.188-0.117,0.373-0.275,0.467l-8.505,8.497l12.604,10.914c0.209,0.181,0.231,0.497,0.051,0.705
			C15.289,42.707,15.149,42.766,15.01,42.766z"/>
	</g>
	<g>
		<path class="st0" d="M12.75,4.5h-4c-0.276,0-0.5-0.224-0.5-0.5s0.224-0.5,0.5-0.5h4c0.276,0,0.5,0.224,0.5,0.5
			S13.026,4.5,12.75,4.5z"/>
	</g>
	<g>
		<path class="st0" d="M10.75,6.5c-0.276,0-0.5-0.224-0.5-0.5V2c0-0.276,0.224-0.5,0.5-0.5s0.5,0.224,0.5,0.5v4
			C11.25,6.276,11.026,6.5,10.75,6.5z"/>
	</g>
	<g>
		<path class="st0" d="M7.75,10h-4c-0.276,0-0.5-0.224-0.5-0.5S3.474,9,3.75,9h4c0.276,0,0.5,0.224,0.5,0.5S8.026,10,7.75,10z"/>
	</g>
	<g>
		<path class="st0" d="M5.75,12c-0.276,0-0.5-0.224-0.5-0.5v-4c0-0.276,0.224-0.5,0.5-0.5s0.5,0.224,0.5,0.5v4
			C6.25,11.776,6.026,12,5.75,12z"/>
	</g>
</g>
</svg>
