<?xml version="1.0" encoding="utf-8"?>
<!-- Generator: Adobe Illustrator 21.1.0, SVG Export Plug-In . SVG Version: 6.00 Build 0)  -->
<svg version="1.1" id="Layer_1" xmlns="http://www.w3.org/2000/svg" xmlns:xlink="http://www.w3.org/1999/xlink" x="0px" y="0px"
	 viewBox="0 0 64 64" style="enable-background:new 0 0 64 64;" xml:space="preserve">
<style type="text/css">
	.st0{fill:#263238;}
	.st1{fill:#FFD740;}
	.st2{fill:#40C4FF;}
	.st3{fill:#FF5252;}
	.st4{fill:#4DB6AC;}
	.st5{fill:#FFFFFF;}
	.st6{fill:#37474F;}
	.st7{fill:#4FC3F7;}
</style>
<g>
	<g>
		<path class="st1" d="M32,12c-11.046,0-20,8.954-20,20h20v20c11.046,0,20-8.954,20-20C52,20.954,43.046,12,32,12z"/>
	</g>
	<g>
		<path class="st0" d="M32,56.5C18.491,56.5,7.5,45.51,7.5,32S18.491,7.5,32,7.5S56.5,18.49,56.5,32S45.509,56.5,32,56.5z M32,8.5
			C19.042,8.5,8.5,19.042,8.5,32S19.042,55.5,32,55.5S55.5,44.958,55.5,32S44.958,8.5,32,8.5z"/>
	</g>
	<g>
		<path class="st3" d="M20.5,33.5H32c0.829,0,1.5-0.671,1.5-1.5V17.5c0-0.829-0.671-1.5-1.5-1.5s-1.5,0.671-1.5,1.5v13h-10
			c-0.829,0-1.5,0.671-1.5,1.5S19.671,33.5,20.5,33.5z"/>
		<path class="st0" d="M32,34H20.5c-1.103,0-2-0.897-2-2s0.897-2,2-2H30V17.5c0-1.103,0.897-2,2-2s2,0.897,2,2V32
			C34,33.103,33.103,34,32,34z M20.5,31c-0.551,0-1,0.448-1,1s0.449,1,1,1H32c0.551,0,1-0.448,1-1V17.5c0-0.552-0.449-1-1-1
			s-1,0.448-1,1v13c0,0.276-0.224,0.5-0.5,0.5H20.5z"/>
	</g>
	<g>
		<circle class="st2" cx="32" cy="32" r="4"/>
		<path class="st0" d="M32,36.5c-2.481,0-4.5-2.019-4.5-4.5s2.019-4.5,4.5-4.5s4.5,2.019,4.5,4.5S34.481,36.5,32,36.5z M32,28.5
			c-1.93,0-3.5,1.57-3.5,3.5s1.57,3.5,3.5,3.5s3.5-1.57,3.5-3.5S33.93,28.5,32,28.5z"/>
	</g>
	<g>
		<path class="st0" d="M4,32.5c-0.276,0-0.5-0.224-0.5-0.5C3.5,16.285,16.285,3.5,32,3.5c0.276,0,0.5,0.224,0.5,0.5
			S32.276,4.5,32,4.5C16.836,4.5,4.5,16.837,4.5,32C4.5,32.276,4.276,32.5,4,32.5z"/>
	</g>
	<g>
		<path class="st0" d="M35,4.5h-1c-0.276,0-0.5-0.224-0.5-0.5s0.224-0.5,0.5-0.5h1c0.276,0,0.5,0.224,0.5,0.5S35.276,4.5,35,4.5z"/>
	</g>
	<g>
		<path class="st0" d="M32,60.5c-0.276,0-0.5-0.224-0.5-0.5s0.224-0.5,0.5-0.5c15.164,0,27.5-12.337,27.5-27.5
			c0-0.276,0.224-0.5,0.5-0.5s0.5,0.224,0.5,0.5C60.5,47.715,47.715,60.5,32,60.5z"/>
	</g>
	<g>
		<path class="st0" d="M30,60.5h-1c-0.276,0-0.5-0.224-0.5-0.5s0.224-0.5,0.5-0.5h1c0.276,0,0.5,0.224,0.5,0.5S30.276,60.5,30,60.5z
			"/>
	</g>
	<g>
		<path class="st0" d="M32,52.5c-11.304,0-20.5-9.196-20.5-20.5S20.696,11.5,32,11.5S52.5,20.696,52.5,32S43.304,52.5,32,52.5z
			 M32,12.5c-10.752,0-19.5,8.748-19.5,19.5S21.248,51.5,32,51.5S51.5,42.752,51.5,32S42.752,12.5,32,12.5z"/>
	</g>
	<g>
		<path class="st0" d="M53,6.5h-4c-0.276,0-0.5-0.224-0.5-0.5s0.224-0.5,0.5-0.5h4c0.276,0,0.5,0.224,0.5,0.5S53.276,6.5,53,6.5z"/>
	</g>
	<g>
		<path class="st0" d="M51,8.5c-0.276,0-0.5-0.224-0.5-0.5V4c0-0.276,0.224-0.5,0.5-0.5s0.5,0.224,0.5,0.5v4
			C51.5,8.276,51.276,8.5,51,8.5z"/>
	</g>
	<g>
		<path class="st0" d="M60,13h-4c-0.276,0-0.5-0.224-0.5-0.5S55.724,12,56,12h4c0.276,0,0.5,0.224,0.5,0.5S60.276,13,60,13z"/>
	</g>
	<g>
		<path class="st0" d="M58,15c-0.276,0-0.5-0.224-0.5-0.5v-4c0-0.276,0.224-0.5,0.5-0.5s0.5,0.224,0.5,0.5v4
			C58.5,14.776,58.276,15,58,15z"/>
	</g>
</g>
</svg>
